<svg width="309" height="244" viewBox="0 0 309 244" fill="none" xmlns="http://www.w3.org/2000/svg">
<path d="M66.7236 181.318C47.3389 181.318 32.1777 176.362 21.2402 166.45C10.3516 156.489 4.90723 141.816 4.90723 122.432C4.90723 103.584 10.1807 89.4482 20.7275 80.0244C31.2744 70.5518 45.8984 65.8154 64.5996 65.8154C74.6582 65.8154 83.5938 66.6211 91.4062 68.2324C99.2676 69.7949 106.494 72.1387 113.086 75.2637V108.735H91.04C89.0869 105.952 86.6699 103.56 83.7891 101.558C80.9082 99.5068 77.417 98.4814 73.3154 98.4814C68.9209 98.4814 65.1123 99.5557 61.8896 101.704C58.7158 103.804 56.25 106.66 54.4922 110.273C52.7344 113.887 51.8555 117.939 51.8555 122.432C51.8555 130.342 53.6377 136.396 57.2021 140.596C60.8154 144.746 66.4062 146.821 73.9746 146.821C75.9277 146.821 77.7832 146.724 79.541 146.528C81.2988 146.284 83.0078 145.991 84.668 145.649V136.787H70.6055V116.719H116.162V170.186C109.18 173.115 101.611 175.703 93.457 177.949C85.3516 180.195 76.4404 181.318 66.7236 181.318ZM126.123 180V150.776L135.498 148.945V105H126.123V73.2129L182.373 67.5V148.945L191.748 150.776V180H126.123ZM245.581 182.124C236.89 182.124 228.809 181.27 221.338 179.561C213.916 177.852 207.129 175.654 200.977 172.969V145.356H222.876C225.171 148.188 227.808 150.605 230.786 152.607C233.813 154.609 237.573 155.61 242.065 155.61C247.046 155.61 250.708 154.756 253.052 153.047C255.444 151.338 256.641 147.969 256.641 142.939C256.641 138.252 255.2 134.98 252.319 133.125C249.487 131.221 245.728 130.269 241.04 130.269C235.571 130.269 230.249 130.61 225.073 131.294C219.897 131.929 214.941 132.686 210.205 133.564L200.977 125.947V67.5H290.479V102.144H268.433C266.04 99.9951 263.184 98.2617 259.863 96.9434C256.543 95.5762 252.759 94.8926 248.511 94.8926H236.938L235.84 112.104C238.135 111.128 240.674 110.347 243.457 109.761C246.24 109.126 249.146 108.809 252.173 108.809C258.228 108.809 264.014 109.419 269.531 110.64C275.098 111.86 280.029 113.813 284.326 116.499C288.672 119.136 292.09 122.578 294.58 126.826C297.119 131.074 298.389 136.201 298.389 142.207C298.389 149.385 296.997 155.513 294.214 160.591C291.431 165.62 287.598 169.722 282.715 172.896C277.881 176.069 272.266 178.413 265.869 179.927C259.521 181.392 252.759 182.124 245.581 182.124Z" fill="url(#paint0_linear_1836_99)"/>
<defs>
<linearGradient id="paint0_linear_1836_99" x1="165" y1="0" x2="165" y2="244" gradientUnits="userSpaceOnUse">
<stop offset="1" stop-color="white"/>
</linearGradient>
</defs>
</svg>
