<svg width="114" height="48" viewBox="0 0 114 48" fill="none" xmlns="http://www.w3.org/2000/svg">
<path d="M8.89648 24.1758C6.31185 24.1758 4.29036 23.515 2.83203 22.1934C1.38021 20.8652 0.654297 18.9089 0.654297 16.3242C0.654297 13.8112 1.35742 11.9264 2.76367 10.6699C4.16992 9.4069 6.11979 8.77539 8.61328 8.77539C9.95443 8.77539 11.1458 8.88281 12.1875 9.09766C13.2357 9.30599 14.1992 9.61849 15.0781 10.0352V14.498H12.1387C11.8783 14.127 11.556 13.8079 11.1719 13.541C10.7878 13.2676 10.3223 13.1309 9.77539 13.1309C9.18945 13.1309 8.68164 13.2741 8.25195 13.5605C7.82878 13.8405 7.5 14.2214 7.26562 14.7031C7.03125 15.1849 6.91406 15.7253 6.91406 16.3242C6.91406 17.3789 7.15169 18.1862 7.62695 18.7461C8.10872 19.2995 8.85417 19.5762 9.86328 19.5762C10.1237 19.5762 10.3711 19.5632 10.6055 19.5371C10.8398 19.5046 11.0677 19.4655 11.2891 19.4199V18.2383H9.41406V15.5625H15.4883V22.6914C14.5573 23.082 13.5482 23.4271 12.4609 23.7266C11.3802 24.026 10.1921 24.1758 8.89648 24.1758ZM16.8359 24V20.1035L18.0078 19.8789V14.3223L16.8359 14.0977V10.25H24.834C25.6803 10.25 26.5039 10.2793 27.3047 10.3379C28.1055 10.3965 28.8379 10.5267 29.502 10.7285C30.166 10.9303 30.7161 11.2363 31.1523 11.6465C31.5951 12.0566 31.8783 12.6133 32.002 13.3164C32.0671 13.681 32.0996 14.0814 32.0996 14.5176C32.0996 15.2533 31.9792 15.849 31.7383 16.3047C31.5039 16.7604 31.1784 17.1283 30.7617 17.4082C30.3451 17.6882 29.86 17.9355 29.3066 18.1504C29.6322 18.7949 30.0651 19.4264 30.6055 20.0449C31.1458 20.6569 31.6439 21.2233 32.0996 21.7441V24H26.2598C25.8626 23.2578 25.4753 22.4831 25.0977 21.6758C24.7266 20.862 24.4303 19.9928 24.209 19.0684H23.8867V24H16.8359ZM23.8867 16.4219C24.6354 16.4219 25.2148 16.3145 25.625 16.0996C26.0352 15.8848 26.2402 15.403 26.2402 14.6543C26.2402 13.9056 26.0319 13.4206 25.6152 13.1992C25.2051 12.9779 24.6289 12.8672 23.8867 12.8672V16.4219ZM41.1621 24.1758C39.4954 24.1758 38.0469 23.9219 36.8164 23.4141C35.5859 22.9062 34.6322 22.1185 33.9551 21.0508C33.2845 19.9831 32.9492 18.6126 32.9492 16.9395C32.9492 15.2988 33.2943 13.9609 33.9844 12.9258C34.6745 11.8841 35.6348 11.1159 36.8652 10.6211C38.1022 10.1263 39.5345 9.87891 41.1621 9.87891C42.7897 9.87891 44.222 10.1263 45.459 10.6211C46.696 11.1159 47.6595 11.8841 48.3496 12.9258C49.0462 13.9609 49.3945 15.2988 49.3945 16.9395C49.3945 18.6126 49.0592 19.9831 48.3887 21.0508C47.7181 22.1185 46.7676 22.9062 45.5371 23.4141C44.3066 23.9219 42.8483 24.1758 41.1621 24.1758ZM41.1621 19.918C42.0736 19.918 42.6953 19.6445 43.0273 19.0977C43.3594 18.5508 43.5254 17.8314 43.5254 16.9395C43.5254 16.0475 43.3561 15.3411 43.0176 14.8203C42.6855 14.2995 42.0671 14.0391 41.1621 14.0391C40.2767 14.0391 39.6647 14.293 39.3262 14.8008C38.9941 15.3086 38.8281 16.0052 38.8281 16.8906C38.8281 17.7956 38.9844 18.528 39.2969 19.0879C39.6159 19.6413 40.2376 19.918 41.1621 19.918ZM58.8477 24.1758C56.4323 24.1758 54.5573 23.5801 53.2227 22.3887C51.888 21.1908 51.2207 19.3743 51.2207 16.9395V14.3223L50.0488 14.0977V10.25H57.6758V14.0977L56.5039 14.3223V15.9531C56.5039 16.0898 56.5039 16.2266 56.5039 16.3633C56.5104 16.5 56.5137 16.6302 56.5137 16.7539V16.959C56.5137 17.8379 56.6797 18.5345 57.0117 19.0488C57.3503 19.5632 57.9622 19.8203 58.8477 19.8203C59.7396 19.8203 60.3548 19.5632 60.6934 19.0488C61.0384 18.528 61.2109 17.8249 61.2109 16.9395V16.7148C61.2109 16.5977 61.2077 16.474 61.2012 16.3438C61.2012 16.207 61.2012 16.0703 61.2012 15.9336V14.3223L60.0293 14.0977V10.25H66.8066V14.0977L65.625 14.3223C65.6185 14.4199 65.6152 14.5176 65.6152 14.6152C65.6152 14.7064 65.6152 14.7975 65.6152 14.8887V16.9395C65.6152 19.2311 65.0521 21.0117 63.9258 22.2812C62.7995 23.5443 61.1068 24.1758 58.8477 24.1758ZM68.0078 24V20.1035L69.1797 19.8789V14.3223L68.0078 14.0977V10.25H76.0059C76.9759 10.25 77.8971 10.2923 78.7695 10.377C79.6419 10.4551 80.4167 10.6309 81.0938 10.9043C81.7708 11.1777 82.3047 11.5944 82.6953 12.1543C83.0859 12.7142 83.2812 13.4727 83.2812 14.4297C83.2812 15.4388 83.0501 16.2331 82.5879 16.8125C82.1257 17.3854 81.5007 17.8086 80.7129 18.082C79.9316 18.349 79.0495 18.5182 78.0664 18.5898C77.0898 18.6615 76.0872 18.6973 75.0586 18.6973V19.8789L76.2305 20.1035V24H68.0078ZM75.0586 16.2266C75.8268 16.2266 76.4095 16.1061 76.8066 15.8652C77.2103 15.6243 77.4121 15.1165 77.4121 14.3418C77.4121 13.5996 77.2038 13.1243 76.7871 12.916C76.3704 12.7012 75.7943 12.5938 75.0586 12.5938V16.2266ZM90.3906 24V20.1035L91.6406 19.8594V14H90.3906V9.76172L97.8906 9V19.8594L99.1406 20.1035V24H90.3906ZM106.318 24.2832C105.16 24.2832 104.082 24.1693 103.086 23.9414C102.096 23.7135 101.191 23.4206 100.371 23.0625V19.3809H103.291C103.597 19.7585 103.949 20.0807 104.346 20.3477C104.749 20.6146 105.251 20.748 105.85 20.748C106.514 20.748 107.002 20.6341 107.314 20.4062C107.633 20.1784 107.793 19.7292 107.793 19.0586C107.793 18.4336 107.601 17.9974 107.217 17.75C106.839 17.4961 106.338 17.3691 105.713 17.3691C104.984 17.3691 104.274 17.4147 103.584 17.5059C102.894 17.5905 102.233 17.6914 101.602 17.8086L100.371 16.793V9H112.305V13.6191H109.365C109.046 13.3327 108.665 13.1016 108.223 12.9258C107.78 12.7435 107.275 12.6523 106.709 12.6523H105.166L105.02 14.9473C105.326 14.8171 105.664 14.7129 106.035 14.6348C106.406 14.5501 106.794 14.5078 107.197 14.5078C108.005 14.5078 108.776 14.5892 109.512 14.752C110.254 14.9147 110.911 15.1751 111.484 15.5332C112.064 15.8848 112.52 16.3438 112.852 16.9102C113.19 17.4766 113.359 18.1602 113.359 18.9609C113.359 19.918 113.174 20.735 112.803 21.4121C112.432 22.0827 111.921 22.6296 111.27 23.0527C110.625 23.4759 109.876 23.7884 109.023 23.9902C108.177 24.1855 107.275 24.2832 106.318 24.2832Z" fill="white"/>
<path d="M0.28125 43V40.457L1.20703 40.3105V36.6895L0.28125 36.543V34H4.95117L6.83789 37.457L8.70703 34H13.3828V36.543L12.457 36.6895V40.3105L13.3828 40.457V43H8.70703V38.6113L6.83789 41.8457L4.95117 38.6113V43H0.28125ZM19.2422 43.1055C17.793 43.1055 16.668 42.748 15.8672 42.0332C15.0664 41.3145 14.666 40.2246 14.666 38.7637V37.1934L13.9629 37.0586V34.75H18.5391V37.0586L17.8359 37.1934V38.1719C17.8359 38.2539 17.8359 38.3359 17.8359 38.418C17.8398 38.5 17.8418 38.5781 17.8418 38.6523V38.7754C17.8418 39.3027 17.9414 39.7207 18.1406 40.0293C18.3438 40.3379 18.7109 40.4922 19.2422 40.4922C19.7773 40.4922 20.1465 40.3379 20.3496 40.0293C20.5566 39.7168 20.6602 39.2949 20.6602 38.7637V38.6289C20.6602 38.5586 20.6582 38.4844 20.6543 38.4062C20.6543 38.3242 20.6543 38.2422 20.6543 38.1602V37.1934L19.9512 37.0586V34.75H24.0176V37.0586L23.3086 37.1934C23.3047 37.252 23.3027 37.3105 23.3027 37.3691C23.3027 37.4238 23.3027 37.4785 23.3027 37.5332V38.7637C23.3027 40.1387 22.9648 41.207 22.2891 41.9688C21.6133 42.7266 20.5977 43.1055 19.2422 43.1055ZM28.1426 43.1055C27.4395 43.1055 26.8223 43.0586 26.291 42.9648C25.7637 42.8711 25.2793 42.7129 24.8379 42.4902V40.457H26.4961C26.625 40.6602 26.7871 40.8359 26.9824 40.9844C27.1816 41.1328 27.4238 41.207 27.709 41.207C27.9863 41.207 28.1719 41.1191 28.2656 40.9434C28.3633 40.7676 28.4121 40.5312 28.4121 40.2344C27.9277 40.1914 27.457 40.1191 27 40.0176C26.543 39.916 26.1328 39.7637 25.7695 39.5605C25.4102 39.3574 25.123 39.084 24.9082 38.7402C24.6973 38.3965 24.5918 37.9609 24.5918 37.4336C24.5918 36.707 24.752 36.1328 25.0723 35.7109C25.3965 35.2852 25.8398 34.9824 26.4023 34.8027C26.9688 34.6191 27.6113 34.5273 28.3301 34.5273C29.0137 34.5273 29.623 34.5898 30.1582 34.7148C30.6973 34.8359 31.1914 35 31.6406 35.207V37.2578H29.8652C29.7559 37.0469 29.6133 36.8594 29.4375 36.6953C29.2617 36.5312 29.0391 36.4492 28.7695 36.4492C28.4844 36.4492 28.291 36.5547 28.1895 36.7656C28.0879 36.9766 28.0371 37.2344 28.0371 37.5391C28.5879 37.5586 29.0996 37.6152 29.5723 37.709C30.0449 37.7988 30.459 37.9492 30.8145 38.1602C31.1699 38.3672 31.4453 38.6523 31.6406 39.0156C31.8398 39.3789 31.9395 39.8418 31.9395 40.4043C31.9395 41.1113 31.7715 41.6602 31.4355 42.0508C31.0996 42.4414 30.6445 42.7148 30.0703 42.8711C29.5 43.0273 28.8574 43.1055 28.1426 43.1055ZM32.5664 43V40.6621L33.2695 40.5273V37.1934L32.5664 37.0586V34.75H37.5V37.0586L36.7969 37.1934V40.5273L37.5 40.6621V43H32.5664ZM42.7793 43.1055C41.8105 43.1055 40.9688 42.9473 40.2539 42.6309C39.543 42.3105 38.9941 41.8301 38.6074 41.1895C38.2207 40.5449 38.0273 39.7363 38.0273 38.7637C38.0273 37.791 38.2168 36.9922 38.5957 36.3672C38.9785 35.7422 39.5215 35.2793 40.2246 34.9785C40.9316 34.6777 41.7695 34.5273 42.7383 34.5273C43.4375 34.5273 44.0664 34.5898 44.625 34.7148C45.1875 34.8359 45.6992 35 46.1602 35.207V37.7559H44.502C44.3535 37.5488 44.1719 37.3711 43.957 37.2227C43.7461 37.0742 43.4844 37 43.1719 37C42.6797 37 42.2871 37.1699 41.9941 37.5098C41.7051 37.8457 41.5605 38.2637 41.5605 38.7637C41.5605 39.3691 41.7148 39.8184 42.0234 40.1113C42.332 40.4004 42.7852 40.5449 43.3828 40.5449C43.8789 40.5449 44.3496 40.4922 44.7949 40.3867C45.2441 40.2812 45.6992 40.1602 46.1602 40.0234V42.5723C44.9961 42.9277 43.8691 43.1055 42.7793 43.1055ZM50.7246 43V40.0469L51.4453 39.9004L53.1738 34H58.0137L59.748 39.9004L60.4688 40.0469V43H57.1348L56.8184 41.4883H54.3691L54.0586 43H50.7246ZM54.873 39.4785H56.3145L55.5938 36.0859L54.873 39.4785ZM61.3125 43V40.6621L62.0156 40.5273V37.1934L61.3125 37.0586V34.75H66.1113C66.6934 34.75 67.2461 34.7754 67.7695 34.8262C68.293 34.873 68.7578 34.9785 69.1641 35.1426C69.5703 35.3066 69.8906 35.5566 70.125 35.8926C70.3594 36.2285 70.4766 36.6836 70.4766 37.2578C70.4766 37.8633 70.3379 38.3398 70.0605 38.6875C69.7832 39.0312 69.4082 39.2852 68.9355 39.4492C68.4668 39.6094 67.9375 39.7109 67.3477 39.7539C66.7617 39.7969 66.1602 39.8184 65.543 39.8184V40.5273L66.2461 40.6621V43H61.3125ZM65.543 38.3359C66.0039 38.3359 66.3535 38.2637 66.5918 38.1191C66.834 37.9746 66.9551 37.6699 66.9551 37.2051C66.9551 36.7598 66.8301 36.4746 66.5801 36.3496C66.3301 36.2207 65.9844 36.1562 65.543 36.1562V38.3359ZM71.0039 43V40.6621L71.707 40.5273V37.1934L71.0039 37.0586V34.75H75.8027C76.3848 34.75 76.9375 34.7754 77.4609 34.8262C77.9844 34.873 78.4492 34.9785 78.8555 35.1426C79.2617 35.3066 79.582 35.5566 79.8164 35.8926C80.0508 36.2285 80.168 36.6836 80.168 37.2578C80.168 37.8633 80.0293 38.3398 79.752 38.6875C79.4746 39.0312 79.0996 39.2852 78.627 39.4492C78.1582 39.6094 77.6289 39.7109 77.0391 39.7539C76.4531 39.7969 75.8516 39.8184 75.2344 39.8184V40.5273L75.9375 40.6621V43H71.0039ZM75.2344 38.3359C75.6953 38.3359 76.0449 38.2637 76.2832 38.1191C76.5254 37.9746 76.6465 37.6699 76.6465 37.2051C76.6465 36.7598 76.5215 36.4746 76.2715 36.3496C76.0215 36.2207 75.6758 36.1562 75.2344 36.1562V38.3359Z" fill="white"/>
</svg>
